<svg width="41" height="40" viewBox="0 0 41 40" fill="none" xmlns="http://www.w3.org/2000/svg">
<path fill-rule="evenodd" clip-rule="evenodd" d="M23.7111 8C23.8669 9.40661 23.3012 10.8178 22.4633 11.8327C21.6252 12.8462 20.2503 13.6358 18.9041 13.5314C18.7197 12.1535 19.4003 10.7166 20.1762 9.8196C21.0429 8.80469 22.504 8.04845 23.7111 8ZM28.0657 16.192C27.8472 16.3256 25.4571 17.7856 25.4837 20.751C25.5166 24.3346 28.5863 25.5588 28.7024 25.6051L28.7054 25.6063C28.7045 25.6093 28.703 25.6142 28.7009 25.6209C28.644 25.8067 28.1599 27.388 27.0447 29.0201C26.0434 30.4812 25.0058 31.9378 23.3707 31.9695C22.5853 31.9836 22.0602 31.7562 21.5144 31.5199C20.9428 31.2724 20.3487 31.0151 19.4094 31.0151C18.4257 31.0151 17.8041 31.2799 17.205 31.5351C16.6857 31.7562 16.1833 31.9702 15.4768 31.9983C13.8977 32.0588 12.6967 30.4177 11.6879 28.9611C9.62779 25.9814 8.05173 20.5408 10.1678 16.8699C11.2175 15.0458 13.0945 13.8917 15.1334 13.8614C16.0118 13.8443 16.8629 14.1817 17.6079 14.4771C18.1766 14.7026 18.6834 14.9036 19.0932 14.9036C19.461 14.9036 19.9543 14.7092 20.5295 14.4824C21.4353 14.1254 22.5444 13.6883 23.6868 13.8039C24.4703 13.8372 26.6665 14.1201 28.0777 16.1847C28.075 16.1864 28.071 16.1888 28.0657 16.192Z" fill="#D0D3D4"/>
</svg>
