<svg width="678" height="439" viewBox="0 0 678 439" fill="none" xmlns="http://www.w3.org/2000/svg">
<path d="M541.553 0C488.138 0 437.645 42.0811 426.598 95.8043C426.565 95.9673 426.609 96.1243 426.587 96.2873C413.752 105.31 405 123.012 405 143.344C405 172.789 423.343 196.747 445.896 196.747C447.684 196.747 449.354 195.844 450.369 194.331C451.388 192.814 451.619 190.881 450.997 189.149C450.915 188.936 443.159 167.201 443.159 140.533C443.159 112.46 450.542 98.4981 450.635 98.3295C451.589 96.5925 451.574 94.4668 450.603 92.7411C449.638 91.0041 447.837 89.9414 445.896 89.9414C443.595 89.9414 441.347 90.2484 439.144 90.7319C452.056 45.6094 495.586 11.2427 541.553 11.2427C585.132 11.2427 627.1 42.4083 642.057 84.7482C640.432 84.4897 638.784 84.32 637.104 84.32C635.174 84.32 633.384 85.383 632.408 87.1088C631.426 88.8289 631.422 90.9711 632.365 92.7081C632.441 92.843 639.831 106.805 639.831 134.912C639.831 157.06 634.496 175.766 632.642 181.606C626.388 186.857 616.885 194.129 605.772 200.425C601.623 195.652 595.205 193.213 588.722 194.771L578.998 197.087C574.402 198.172 570.5 201.031 567.997 205.157C565.5 209.272 564.703 214.164 565.761 218.892C567.636 227.301 574.923 233 582.96 233C584.263 233 585.581 232.854 586.911 232.539L596.645 230.233C601.236 229.148 605.139 226.273 607.636 222.153C609.73 218.707 610.552 214.736 610.171 210.756C621.867 204.224 631.908 196.654 638.691 191.027C660.502 189.925 678 166.47 678 137.723C678 116.57 668.518 98.3125 654.826 89.6669C654.804 89.2453 654.85 88.8259 654.73 88.4043C640.536 37.1771 592.935 0 541.553 0ZM470.667 81.5094C467.652 81.5094 465.215 84.0221 465.215 87.1307V154.587C465.215 157.695 467.652 160.208 470.667 160.208H558.156C555.408 166.15 551.061 174.162 547.783 179.795C546.687 181.678 546.76 184.045 547.954 185.855C548.974 187.413 550.676 188.315 552.459 188.315C552.759 188.315 553.053 188.289 553.353 188.238C587.09 182.442 614.686 159.934 615.847 158.978C617.139 157.91 617.892 156.296 617.892 154.587V87.1307C617.892 84.0221 615.454 81.5094 612.439 81.5094H470.667ZM506.11 103.995C513.755 103.995 519.742 111.398 519.742 120.859C519.742 130.319 513.755 137.723 506.11 137.723C498.466 137.723 492.478 130.319 492.478 120.859C492.478 111.398 498.466 103.995 506.11 103.995ZM576.996 103.995C584.641 103.995 590.628 111.398 590.628 120.859C590.628 130.319 584.641 137.723 576.996 137.723C569.351 137.723 563.364 130.319 563.364 120.859C563.364 111.398 569.351 103.995 576.996 103.995Z" fill="white"/>
<path d="M646.063 327.514C646.063 327.514 640.407 323.291 617.744 321.413C617.744 321.413 627.598 331.717 635.599 333.047C643.6 334.377 646.063 327.514 646.063 327.514Z" fill="#1D1D1B"/>
<path d="M38.1311 332.639C47.6694 322.884 30.9182 293.922 40.7718 283.582C50.6255 273.224 96.9378 255.488 96.9378 255.488L90.1979 243.375C295.647 209.233 365.115 232.29 383.345 236.724C401.574 241.158 473.506 276.186 473.506 276.186C653.335 288.158 656.291 323.186 656.291 323.186C668.766 329.979 664.174 354.809 664.174 354.809C664.174 354.809 664.174 368.111 659.898 384.676C655.641 401.223 600.776 402.997 600.776 402.997C600.776 402.997 614.571 332.941 546.581 332.355C478.59 331.752 482.374 401.224 482.374 401.224H192.183C192.183 401.224 202.372 335.299 133.712 335.299C65.071 335.299 74.2743 395.903 74.2743 395.903L37.5399 385.261C23.8039 362.648 28.6124 342.394 38.1311 332.639ZM44.871 310.327C51.3744 317.847 72.1262 311.959 87.3994 305.823C102.673 299.686 93.489 299.828 93.489 299.828C59.4938 300.129 40.9295 290.889 40.9295 290.889C40.9295 290.889 38.3696 302.807 44.871 310.327ZM113.354 264.658L98.5735 252.03L101.451 258.379C49.4628 276.115 41.6587 287.501 41.6587 287.501C41.6587 287.501 105.235 271.539 110.634 269.092C116.074 266.644 113.354 264.658 113.354 264.658ZM142.915 269.766C138.225 276.399 122.715 282.181 137.496 282.393C152.276 282.606 413.556 297.469 413.556 297.469L411.585 293.922L154.089 279.733C154.089 279.733 148.177 280.407 150.798 276.08C153.419 271.752 159.942 266.234 144.551 261.11C129.179 255.985 144.551 254.69 144.551 254.69C144.551 254.69 331.081 203.185 459.829 296.105C457.76 293.78 370.831 198.397 126.164 254.69C126.164 254.69 147.605 263.097 142.915 269.766ZM176.004 303.375C176.004 304.723 177.226 305.823 178.723 305.823H203.357C204.855 305.823 206.057 304.723 206.057 303.375C206.057 302.027 204.855 300.945 203.357 300.945H178.723C177.227 300.945 176.004 302.027 176.004 303.375ZM303.057 379.887C303.688 378.293 320.34 335.727 297.618 296.139C297.618 296.139 309.917 350.606 303.057 379.887ZM320.439 305.823C320.439 307.17 321.661 308.252 323.158 308.252H347.793C349.29 308.252 350.493 307.17 350.493 305.823C350.493 304.475 349.29 303.375 347.793 303.375H323.158C321.663 303.375 320.439 304.475 320.439 305.823ZM411.428 273.526C369.057 251.569 300.574 245.592 300.574 245.592L311.176 284.38L407.742 289.931C405.023 284.38 411.428 273.526 411.428 273.526ZM280.866 284.38L276.689 245.148C250.32 242.275 193.405 248.695 193.405 248.695L194.903 279.29L280.866 284.38ZM189.72 277.747L188.478 250.256L170.013 252.03L158.188 277.747H189.72ZM416.512 292.893L437.54 290.889C437.54 290.889 419.153 288.601 415.527 285.054C415.527 285.054 411.92 289.63 416.512 292.893ZM262.145 228.743C177.955 228.388 146.364 241.601 146.364 241.601C236.525 227.412 337.032 236.28 358.711 241.601C380.389 246.922 383.345 241.601 383.345 241.601C383.345 241.601 346.336 229.097 262.145 228.743ZM473.053 278.545C465.209 274.111 386.951 239.526 388.922 241.016C390.893 242.488 383.345 247.223 383.345 247.223C394.755 250.575 448.714 279.733 465.13 282.979C481.546 286.242 473.053 278.545 473.053 278.545ZM469.091 301.016C469.525 302.79 478.157 339.006 473.506 368.412C473.506 368.412 483.834 331.078 469.091 301.016ZM494.356 288.974L507.166 305.823C507.166 305.823 586.232 301.193 613.724 307.862C601.801 304.847 522.577 285.214 494.356 288.974ZM587.552 314.992C581.404 315.879 638.555 343.139 642.989 337.587C647.423 332.054 652.586 328.507 652.586 328.507C642.496 315.648 593.721 314.105 587.552 314.992ZM659.011 363.092C659.011 363.092 650.143 359.988 646.063 365.078C642.004 370.186 640.033 375.95 640.033 375.95H654.202L659.011 363.092ZM42.1711 382.158L69.0125 389.021C69.0125 389.021 64.4207 327.904 133.396 331.167C202.372 334.413 197.761 397.091 197.761 397.091H477.447C477.447 397.091 477.94 328.507 545.595 329.695C613.27 330.865 604.737 394.963 605.052 398.865C605.368 402.751 657.927 395.016 653.986 379.941L613.921 380.242C613.921 380.242 611.3 327.318 543.625 324.374C475.969 321.412 473.999 392.356 473.999 392.356L206.057 385.261C206.057 385.261 196.125 333.384 144.886 326.29C93.6467 319.195 72.8752 347.129 67.0418 367.082L41.4222 365.131C41.4222 365.131 38.4661 348.016 32.5539 347.342C32.5539 347.342 31.0758 376.181 42.1711 382.158Z" fill="white"/>
<path d="M617.744 321.413C617.744 321.413 627.598 331.717 635.599 333.047C643.6 334.377 646.063 327.516 646.063 327.516C646.063 327.516 640.407 323.293 617.744 321.413Z" fill="#1D1D1B"/>
<path d="M617.744 321.413C617.744 321.413 627.598 331.717 635.599 333.047C643.6 334.377 646.063 327.516 646.063 327.516C646.063 327.516 640.407 323.293 617.744 321.413Z" fill="white"/>
<path d="M130.931 352.97C152.634 352.97 170.231 368.762 170.231 388.229C170.231 407.717 152.634 423.495 130.931 423.495C109.229 423.495 91.6065 407.717 91.6065 388.229C91.6065 368.762 109.229 352.97 130.931 352.97ZM118.192 360.568L130.931 380.079L141.498 360.568C132.064 353.413 118.192 360.568 118.192 360.568ZM126.4 388.229C126.4 390.825 128.782 392.922 131.707 392.922C134.632 392.922 137.016 390.825 137.016 388.229C137.016 385.641 134.632 383.539 131.707 383.539C128.782 383.539 126.4 385.641 126.4 388.229ZM154.213 366.112L140.768 385.237L164.876 384.768C167.635 373.921 154.213 366.112 154.213 366.112ZM163.201 394.601L138.078 394.051L150.934 412.415C162.683 408.971 163.201 394.601 163.201 394.601ZM142.584 417.42L130.318 397.678L119.278 416.954C128.55 424.321 142.584 417.42 142.584 417.42ZM110.1 412.812L123.499 393.665L99.3909 394.195C96.6772 405.023 110.1 412.812 110.1 412.812ZM122.415 384.662L106.87 368.083C95.7589 372.946 97.434 387.253 97.434 387.253L122.415 384.662Z" fill="#1D1D1B"/>
<path d="M131.709 340.232C161.856 340.232 186.318 362.162 186.318 389.206C186.318 416.274 161.856 438.205 131.709 438.205C101.563 438.205 77.0983 416.274 77.0983 389.206C77.0983 362.164 101.561 340.232 131.709 340.232ZM130.931 427.017C154.802 427.017 174.173 409.652 174.173 388.229C174.173 366.811 154.802 349.446 130.931 349.446C107.057 349.446 87.691 366.811 87.691 388.229C87.691 409.652 107.057 427.017 130.931 427.017Z" fill="white"/>
<path d="M130.931 352.97C152.634 352.97 170.231 368.762 170.231 388.229C170.231 407.717 152.634 423.495 130.931 423.495C109.229 423.495 91.6065 407.717 91.6065 388.229C91.6065 368.762 109.229 352.97 130.931 352.97ZM118.192 360.568L130.931 380.079L141.498 360.568C132.064 353.413 118.192 360.568 118.192 360.568ZM126.4 388.229C126.4 390.825 128.782 392.922 131.707 392.922C134.632 392.922 137.016 390.825 137.016 388.229C137.016 385.641 134.632 383.539 131.707 383.539C128.782 383.539 126.4 385.641 126.4 388.229ZM154.213 366.112L140.768 385.237L164.876 384.768C167.635 373.921 154.213 366.112 154.213 366.112ZM163.201 394.601L138.078 394.051L150.934 412.415C162.683 408.971 163.201 394.601 163.201 394.601ZM142.584 417.42L130.318 397.678L119.278 416.954C128.55 424.321 142.584 417.42 142.584 417.42ZM110.1 412.812L123.499 393.665L99.3909 394.195C96.6772 405.023 110.1 412.812 110.1 412.812ZM122.415 384.662L106.87 368.083C95.7589 372.946 97.434 387.253 97.434 387.253L122.415 384.662Z" fill="#1D1D1B"/>
<path d="M130.931 352.97C152.634 352.97 170.231 368.762 170.231 388.229C170.231 407.717 152.634 423.495 130.931 423.495C109.229 423.495 91.6065 407.717 91.6065 388.229C91.6065 368.762 109.229 352.97 130.931 352.97ZM118.192 360.568L130.931 380.079L141.498 360.568C132.064 353.413 118.192 360.568 118.192 360.568ZM126.4 388.229C126.4 390.825 128.782 392.922 131.707 392.922C134.632 392.922 137.016 390.825 137.016 388.229C137.016 385.641 134.632 383.539 131.707 383.539C128.782 383.539 126.4 385.641 126.4 388.229ZM154.213 366.112L140.768 385.237L164.876 384.768C167.635 373.921 154.213 366.112 154.213 366.112ZM163.201 394.601L138.078 394.051L150.934 412.415C162.683 408.971 163.201 394.601 163.201 394.601ZM142.584 417.42L130.318 397.678L119.278 416.954C128.55 424.321 142.584 417.42 142.584 417.42ZM110.1 412.812L123.499 393.665L99.3909 394.195C96.6772 405.023 110.1 412.812 110.1 412.812ZM122.415 384.662L106.87 368.083C95.7589 372.946 97.434 387.253 97.434 387.253L122.415 384.662Z" fill="white"/>
<path d="M540.844 352.97C562.547 352.97 580.144 368.762 580.144 388.229C580.144 407.717 562.547 423.495 540.844 423.495C519.142 423.495 501.52 407.717 501.52 388.229C501.52 368.762 519.142 352.97 540.844 352.97ZM528.105 360.568L540.844 380.079L551.411 360.568C541.977 353.413 528.105 360.568 528.105 360.568ZM536.313 388.229C536.313 390.825 538.696 392.922 541.62 392.922C544.545 392.922 546.929 390.825 546.929 388.229C546.929 385.641 544.545 383.539 541.62 383.539C538.696 383.539 536.313 385.641 536.313 388.229ZM564.126 366.112L550.682 385.237L574.79 384.768C577.549 373.921 564.126 366.112 564.126 366.112ZM573.114 394.601L547.991 394.051L560.847 412.415C572.596 408.971 573.114 394.601 573.114 394.601ZM552.497 417.42L540.231 397.678L529.193 416.954C538.463 424.321 552.497 417.42 552.497 417.42ZM520.013 412.812L533.412 393.665L509.304 394.195C506.59 405.023 520.013 412.812 520.013 412.812ZM532.328 384.662L516.783 368.083C505.672 372.946 507.347 387.253 507.347 387.253L532.328 384.662Z" fill="#1D1D1B"/>
<path d="M541.622 340.232C571.768 340.232 596.231 362.162 596.231 389.206C596.231 416.274 571.768 438.205 541.622 438.205C511.476 438.205 487.011 416.274 487.011 389.206C487.011 362.164 511.474 340.232 541.622 340.232ZM540.843 427.017C564.715 427.017 584.085 409.652 584.085 388.229C584.085 366.811 564.715 349.446 540.843 349.446C516.97 349.446 497.604 366.811 497.604 388.229C497.604 409.652 516.97 427.017 540.843 427.017Z" fill="white"/>
<path d="M540.844 352.97C562.547 352.97 580.144 368.762 580.144 388.229C580.144 407.717 562.547 423.495 540.844 423.495C519.142 423.495 501.52 407.717 501.52 388.229C501.52 368.762 519.142 352.97 540.844 352.97ZM528.105 360.568L540.844 380.079L551.411 360.568C541.977 353.413 528.105 360.568 528.105 360.568ZM536.313 388.229C536.313 390.825 538.696 392.922 541.62 392.922C544.545 392.922 546.929 390.825 546.929 388.229C546.929 385.641 544.545 383.539 541.62 383.539C538.696 383.539 536.313 385.641 536.313 388.229ZM564.126 366.112L550.682 385.237L574.79 384.768C577.549 373.921 564.126 366.112 564.126 366.112ZM573.114 394.601L547.991 394.051L560.847 412.415C572.596 408.971 573.114 394.601 573.114 394.601ZM552.497 417.42L540.231 397.678L529.193 416.954C538.463 424.321 552.497 417.42 552.497 417.42ZM520.013 412.812L533.412 393.665L509.304 394.195C506.59 405.023 520.013 412.812 520.013 412.812ZM532.328 384.662L516.783 368.083C505.672 372.946 507.347 387.253 507.347 387.253L532.328 384.662Z" fill="#1D1D1B"/>
<path d="M540.844 352.97C562.547 352.97 580.144 368.762 580.144 388.229C580.144 407.717 562.547 423.495 540.844 423.495C519.142 423.495 501.52 407.717 501.52 388.229C501.52 368.762 519.142 352.97 540.844 352.97ZM528.105 360.568L540.844 380.079L551.411 360.568C541.977 353.413 528.105 360.568 528.105 360.568ZM536.313 388.229C536.313 390.825 538.696 392.922 541.62 392.922C544.545 392.922 546.929 390.825 546.929 388.229C546.929 385.641 544.545 383.539 541.62 383.539C538.696 383.539 536.313 385.641 536.313 388.229ZM564.126 366.112L550.682 385.237L574.79 384.768C577.549 373.921 564.126 366.112 564.126 366.112ZM573.114 394.601L547.992 394.051L560.847 412.415C572.596 408.971 573.114 394.601 573.114 394.601ZM552.497 417.42L540.231 397.678L529.193 416.954C538.463 424.321 552.497 417.42 552.497 417.42ZM520.013 412.812L533.412 393.665L509.304 394.195C506.59 405.023 520.013 412.812 520.013 412.812ZM532.328 384.662L516.783 368.083C505.672 372.946 507.347 387.253 507.347 387.253L532.328 384.662Z" fill="white"/>
</svg>
