<svg width="511" height="457" viewBox="0 0 511 457" fill="none" xmlns="http://www.w3.org/2000/svg">
<path d="M295.952 188.339C287.84 200.648 292.855 214.498 301.929 221.428L315.849 231.249C331.636 243.387 348.264 232.491 352.523 227.259L401.348 168.954C407.085 161.942 411.397 144.468 397.145 133.423L383.226 123.601C372.903 115.637 356.654 117.046 347.711 126.296L264.371 63.2974C269.447 55.4574 272.086 39.6954 258.876 29.5265L244.957 19.7047C234.222 11.4259 216.81 13.3203 208.282 23.6952L159.457 82.0002C148.876 94.8476 153.956 110.04 163.66 117.531L177.579 127.353C191.315 138.004 205.77 130.943 212.077 125.579L227.411 137.046L38.3141 363.203L89.9266 403.023L279.69 176.163L295.952 188.339ZM361.512 138.29C363.882 135.333 368.143 134.869 372.278 138.108L386.197 147.93C388.683 149.909 389.237 153.807 387.195 156.369L338.371 214.674C335.836 217.828 331.02 218.352 327.721 215.832L313.801 206.011C311.739 204.436 309.414 200.64 312.698 196.684L361.512 138.29ZM336.205 140.054L307.283 174.69L224.818 111.956L253.842 76.589L336.205 140.054ZM200.102 110.777C197.567 113.932 192.751 114.456 189.451 111.936L175.532 102.114C173.47 100.539 171.145 96.7433 174.429 92.7871L223.253 34.4821C225.624 31.5251 229.884 31.0615 234.019 34.3004L247.938 44.1222C250.424 46.101 250.979 49.9994 248.936 52.5608L200.102 110.777ZM87.8565 376.797L65.3573 360.261L242.332 148.198L264.666 164.932L87.8565 376.797Z" fill="#050B20"/>
<path d="M469.691 388.238V338.354H293.809V388.238H252.984V456.895H510.516V388.238H469.691ZM313.289 356.233H451.236V388.238H313.289V356.233ZM492.061 438.032H272.464V407.011H492.061V438.032Z" fill="#050B20"/>
<path fill-rule="evenodd" clip-rule="evenodd" d="M378 224C374.977 224 372.526 226.32 372.526 229.182V234.364H367.053C358.099 234.364 350.953 237.492 346.083 242.521C341.294 247.467 339 253.943 339 260.273C339 266.603 341.294 273.078 346.083 278.024C346.983 278.953 347.959 279.816 349.01 280.608C353.653 284.102 359.752 286.182 367.053 286.182H372.526V317.273H367.053C362.537 317.273 359.514 316.219 357.431 314.904C355.314 313.568 353.834 311.75 352.791 309.774C351.736 307.777 351.182 305.718 350.899 304.114C350.759 303.318 350.654 302.511 350.632 301.703C350.617 298.853 348.172 296.545 345.158 296.545C342.135 296.545 339.684 298.865 339.684 301.727C339.684 302.075 339.697 302.41 339.741 302.987C339.794 303.692 339.898 304.664 340.101 305.818C340.503 308.1 341.317 311.223 342.999 314.408C344.692 317.614 347.318 320.977 351.358 323.528C355.434 326.099 360.621 327.636 367.053 327.636H372.526V332.818C372.526 335.68 374.977 338 378 338C381.023 338 383.474 335.68 383.474 332.818V327.636H388.947C397.901 327.636 405.047 324.508 409.917 319.479C414.706 314.533 417 308.057 417 301.727C417 295.397 414.706 288.922 409.917 283.976C405.047 278.946 397.901 275.818 388.947 275.818H383.474V244.727H388.947C393.463 244.727 396.486 245.781 398.569 247.096C400.686 248.432 402.166 250.25 403.21 252.226C404.264 254.223 404.818 256.282 405.101 257.886C405.241 258.682 405.346 259.489 405.368 260.297C405.383 263.147 407.828 265.455 410.842 265.455C413.83 265.455 416.316 263.094 416.316 260.267C416.315 259.921 416.303 259.587 416.259 259.013C416.206 258.308 416.102 257.336 415.899 256.182C415.497 253.9 414.684 250.777 413.001 247.592C411.308 244.386 408.682 241.023 404.642 238.473C400.566 235.901 395.379 234.364 388.947 234.364H383.474V229.182C383.474 226.32 381.023 224 378 224ZM372.526 244.727H367.053C360.954 244.727 356.81 246.781 354.153 249.524C351.416 252.351 349.947 256.239 349.947 260.273C349.947 264.307 351.416 268.195 354.153 271.021C356.81 273.765 360.954 275.818 367.053 275.818H372.526V244.727ZM383.474 286.182V317.273H388.947C395.046 317.273 399.19 315.219 401.847 312.476C404.583 309.649 406.053 305.761 406.053 301.727C406.053 297.694 404.583 293.805 401.847 290.979C399.19 288.235 395.046 286.182 388.947 286.182H383.474Z" fill="#D34319"/>
</svg>
