<svg width="511" height="460" viewBox="0 0 511 460" fill="none" xmlns="http://www.w3.org/2000/svg">
<path d="M295.952 191.339C287.84 203.648 292.855 217.498 301.929 224.428L315.849 234.249C331.636 246.387 348.264 235.491 352.523 230.259L401.348 171.954C407.085 164.942 411.397 147.468 397.145 136.423L383.226 126.601C372.903 118.637 356.654 120.046 347.711 129.296L264.371 66.2974C269.447 58.4574 272.086 42.6954 258.876 32.5265L244.957 22.7047C234.222 14.4259 216.81 16.3203 208.282 26.6952L159.457 85.0002C148.876 97.8476 153.956 113.04 163.66 120.531L177.579 130.353C191.315 141.004 205.77 133.943 212.077 128.579L227.411 140.046L38.3141 366.203L89.9266 406.023L279.69 179.163L295.952 191.339ZM361.512 141.29C363.882 138.333 368.143 137.869 372.278 141.108L386.197 150.93C388.683 152.909 389.237 156.807 387.195 159.369L338.371 217.674C335.836 220.828 331.02 221.352 327.721 218.832L313.801 209.011C311.739 207.436 309.414 203.64 312.698 199.684L361.512 141.29ZM336.205 143.054L307.283 177.69L224.818 114.956L253.842 79.589L336.205 143.054ZM200.102 113.777C197.567 116.932 192.751 117.456 189.451 114.936L175.532 105.114C173.47 103.539 171.145 99.7433 174.429 95.7871L223.253 37.4821C225.624 34.5251 229.884 34.0615 234.019 37.3004L247.938 47.1222C250.424 49.101 250.979 52.9994 248.936 55.5608L200.102 113.777ZM87.8565 379.797L65.3573 363.261L242.332 151.198L264.666 167.932L87.8565 379.797Z" fill="white"/>
<path d="M469.691 391.238V341.354H293.809V391.238H252.984V459.895H510.516V391.238H469.691ZM313.289 359.233H451.236V391.238H313.289V359.233ZM492.061 441.032H272.464V410.011H492.061V441.032Z" fill="white"/>
<path fill-rule="evenodd" clip-rule="evenodd" d="M378 227C374.977 227 372.526 229.32 372.526 232.182V237.364H367.053C358.099 237.364 350.953 240.492 346.083 245.521C341.294 250.467 339 256.943 339 263.273C339 269.603 341.294 276.078 346.083 281.024C346.983 281.953 347.959 282.816 349.01 283.608C353.653 287.102 359.752 289.182 367.053 289.182H372.526V320.273H367.053C362.537 320.273 359.514 319.219 357.431 317.904C355.314 316.568 353.834 314.75 352.791 312.774C351.736 310.777 351.182 308.718 350.899 307.114C350.759 306.318 350.654 305.511 350.632 304.703C350.617 301.853 348.172 299.545 345.158 299.545C342.135 299.545 339.684 301.865 339.684 304.727C339.684 305.075 339.697 305.41 339.741 305.987C339.794 306.692 339.898 307.664 340.101 308.818C340.503 311.1 341.317 314.223 342.999 317.408C344.692 320.614 347.318 323.977 351.358 326.528C355.434 329.099 360.621 330.636 367.053 330.636H372.526V335.818C372.526 338.68 374.977 341 378 341C381.023 341 383.474 338.68 383.474 335.818V330.636H388.947C397.901 330.636 405.047 327.508 409.917 322.479C414.706 317.533 417 311.057 417 304.727C417 298.397 414.706 291.922 409.917 286.976C405.047 281.946 397.901 278.818 388.947 278.818H383.474V247.727H388.947C393.463 247.727 396.486 248.781 398.569 250.096C400.686 251.432 402.166 253.25 403.21 255.226C404.264 257.223 404.818 259.282 405.101 260.886C405.241 261.682 405.346 262.489 405.368 263.297C405.383 266.147 407.828 268.455 410.842 268.455C413.83 268.455 416.316 266.094 416.316 263.267C416.315 262.921 416.303 262.587 416.259 262.013C416.206 261.308 416.102 260.336 415.899 259.182C415.497 256.9 414.684 253.777 413.001 250.592C411.308 247.386 408.682 244.023 404.642 241.473C400.566 238.901 395.379 237.364 388.947 237.364H383.474V232.182C383.474 229.32 381.023 227 378 227ZM372.526 247.727H367.053C360.954 247.727 356.81 249.781 354.153 252.524C351.416 255.351 349.947 259.239 349.947 263.273C349.947 267.307 351.416 271.195 354.153 274.021C356.81 276.765 360.954 278.818 367.053 278.818H372.526V247.727ZM383.474 289.182V320.273H388.947C395.046 320.273 399.19 318.219 401.847 315.476C404.583 312.649 406.053 308.761 406.053 304.727C406.053 300.694 404.583 296.805 401.847 293.979C399.19 291.235 395.046 289.182 388.947 289.182H383.474Z" fill="#FF825E"/>
</svg>
