<svg width="41" height="40" viewBox="0 0 41 40" fill="none" xmlns="http://www.w3.org/2000/svg">
<path d="M20.3701 15.707C18.1201 15.707 16.3271 17.5352 16.3271 19.75C16.3271 22 18.1201 23.793 20.3701 23.793C22.5849 23.793 24.4131 22 24.4131 19.75C24.4131 17.5352 22.5849 15.707 20.3701 15.707ZM20.3701 22.3867C18.9287 22.3867 17.7334 21.2266 17.7334 19.75C17.7334 18.3086 18.8935 17.1484 20.3701 17.1484C21.8115 17.1484 22.9717 18.3086 22.9717 19.75C22.9717 21.2266 21.8115 22.3867 20.3701 22.3867ZM25.5029 15.5664C25.5029 15.0391 25.081 14.6172 24.5537 14.6172C24.0263 14.6172 23.6045 15.0391 23.6045 15.5664C23.6045 16.0938 24.0263 16.5156 24.5537 16.5156C25.081 16.5156 25.5029 16.0938 25.5029 15.5664ZM28.1748 16.5156C28.1045 15.25 27.8232 14.125 26.9092 13.2109C25.9951 12.2969 24.8701 12.0156 23.6045 11.9453C22.3037 11.875 18.4014 11.875 17.1006 11.9453C15.835 12.0156 14.7451 12.2969 13.7959 13.2109C12.8818 14.125 12.6006 15.25 12.5303 16.5156C12.46 17.8164 12.46 21.7188 12.5303 23.0195C12.6006 24.2852 12.8818 25.375 13.7959 26.3242C14.7451 27.2383 15.835 27.5195 17.1006 27.5898C18.4014 27.6602 22.3037 27.6602 23.6045 27.5898C24.8701 27.5195 25.9951 27.2383 26.9092 26.3242C27.8232 25.375 28.1045 24.2852 28.1748 23.0195C28.2451 21.7188 28.2451 17.8164 28.1748 16.5156ZM26.4873 24.3906C26.2412 25.0938 25.6787 25.6211 25.0107 25.9023C23.956 26.3242 21.4951 26.2188 20.3701 26.2188C19.2099 26.2188 16.749 26.3242 15.7295 25.9023C15.0264 25.6211 14.499 25.0938 14.2178 24.3906C13.7959 23.3711 13.9014 20.9102 13.9014 19.75C13.9014 18.625 13.7959 16.1641 14.2178 15.1094C14.499 14.4414 15.0264 13.9141 15.7295 13.6328C16.749 13.2109 19.2099 13.3164 20.3701 13.3164C21.4951 13.3164 23.956 13.2109 25.0107 13.6328C25.6787 13.8789 26.206 14.4414 26.4873 15.1094C26.9092 16.1641 26.8037 18.625 26.8037 19.75C26.8037 20.9102 26.9092 23.3711 26.4873 24.3906Z" fill="#D0D3D4"/>
</svg>
