<svg width="594" height="413" viewBox="0 0 594 413" fill="none" xmlns="http://www.w3.org/2000/svg">
<path d="M324.693 143.881L313.697 144.224L314.097 204.046H324.693V143.881ZM313.697 144.224L324.693 143.881L324.293 15.471H313.897L313.697 144.224ZM570.408 15.471H581.004V204.218H570.408V109.844V15.471ZM376.675 148.694H401.666V183.762H376.675V148.694ZM418.461 113.626H443.452V183.762H418.461V113.626ZM460.446 100.046H485.437V183.933H460.446V100.046ZM502.232 67.385H527.223V183.933H502.232V67.385ZM301.701 0V15.471H314.297H324.693H570.608H581.204H594V0H301.701ZM324.693 204.218H314.097H301.501V219.689H437.054V218.314H450.25V219.689H593.6V204.218H580.805H570.208H324.693ZM450.25 218.314H437.054V219.689V327.127L379.074 376.978H397.668L437.054 343.113V376.978H450.25V343.113L490.036 376.978H508.43L450.449 327.127V219.689V218.314H450.25Z" fill="url(#paint0_linear_479_473)"/>
<path d="M95 186.198H259M212.143 276.171V246.18M141.857 276.171H141.974M177 276.171H177.117M177 246.18H177.117M141.857 246.18H141.974M212.143 216.189H212.26M177 216.189H177.117M141.857 216.189H141.974M132.486 306.161H221.514C234.635 306.161 241.197 306.161 246.208 303.982C250.616 302.066 254.201 299.007 256.446 295.245C259 290.968 259 285.369 259 274.171V158.207C259 147.009 259 141.411 256.446 137.134C254.201 133.371 250.616 130.313 246.208 128.396C241.197 126.217 234.635 126.217 221.514 126.217H132.486C119.365 126.217 112.804 126.217 107.792 128.396C103.384 130.313 99.7997 133.371 97.5536 137.134C95 141.411 95 147.009 95 158.207V274.171C95 285.369 95 290.968 97.5536 295.245C99.7997 299.007 103.384 302.066 107.792 303.982C112.804 306.161 119.364 306.161 132.486 306.161Z" stroke="white" stroke-width="20" stroke-linecap="round" stroke-linejoin="round"/>
<defs>
<linearGradient id="paint0_linear_479_473" x1="297" y1="0" x2="297" y2="412.764" gradientUnits="userSpaceOnUse">
<stop stop-color="white"/>
<stop offset="1" stop-color="white"/>
</linearGradient>
</defs>
</svg>
