<svg width="41" height="40" viewBox="0 0 41 40" fill="none" xmlns="http://www.w3.org/2000/svg">
<path d="M27.6318 16.0937C28.3349 15.5664 28.9678 14.9336 29.4599 14.1953C28.8271 14.4766 28.0889 14.6875 27.3506 14.7578C28.124 14.3008 28.6865 13.5977 28.9678 12.7187C28.2646 13.1406 27.456 13.457 26.6474 13.6328C25.9443 12.8945 24.9951 12.4727 23.9404 12.4727C21.9013 12.4727 20.249 14.125 20.249 16.1641C20.249 16.4453 20.2842 16.7266 20.3545 17.0078C17.2959 16.832 14.5537 15.3555 12.7256 13.1406C12.4092 13.668 12.2334 14.3008 12.2334 15.0039C12.2334 16.2695 12.8662 17.3945 13.8857 18.0625C13.2881 18.0273 12.6904 17.8867 12.1982 17.6055V17.6406C12.1982 19.4336 13.4639 20.9102 15.1514 21.2617C14.8701 21.332 14.5186 21.4023 14.2021 21.4023C13.9561 21.4023 13.7451 21.3672 13.499 21.332C13.9561 22.8086 15.3271 23.8633 16.9443 23.8984C15.6787 24.8828 14.0967 25.4805 12.374 25.4805C12.0576 25.4805 11.7764 25.4453 11.4951 25.4102C13.1123 26.4648 15.0459 27.0625 17.1553 27.0625C23.9404 27.0625 27.6318 21.4727 27.6318 16.5859C27.6318 16.4102 27.6318 16.2695 27.6318 16.0937Z" fill="#D0D3D4"/>
</svg>
