<svg width="636" height="326" viewBox="0 0 636 326" fill="none" xmlns="http://www.w3.org/2000/svg">
<path d="M408.442 112.341L370.818 82.5109C361.187 88.4505 348.134 92.2197 334.409 92.1987C302.156 92.1492 276.162 71.5397 276.263 46.0983C276.364 20.657 302.523 0.127375 334.776 0.176815C367.029 0.226256 393.023 20.8358 392.922 46.2772C392.879 57.1033 388.037 66.8394 380.456 74.9474L418.08 104.777L408.442 112.341ZM334.735 10.4616C310.031 10.4237 290.067 26.0911 289.99 45.5781C289.912 65.065 309.75 80.7934 334.455 80.8312C359.159 80.8691 379.122 65.2018 379.2 45.7148C379.277 26.2278 359.439 10.4995 334.735 10.4616Z" fill="#D34319"/>
<path d="M18.9365 214.815C18.9365 214.815 24.5925 210.592 47.256 208.714C47.256 208.714 37.4023 219.018 29.4011 220.349C21.3999 221.679 18.9365 214.815 18.9365 214.815Z" fill="#1D1D1B"/>
<path d="M626.869 219.94C617.331 210.186 634.082 181.223 624.228 170.883C614.374 160.525 568.062 142.79 568.062 142.79L574.802 130.676C369.353 96.5345 299.885 119.591 281.655 124.025C263.426 128.459 191.494 163.487 191.494 163.487C11.6646 175.459 8.70852 210.487 8.70852 210.487C-3.76623 217.28 0.825583 242.11 0.825583 242.11C0.825583 242.11 0.825579 255.412 5.10207 271.977C9.35886 288.525 64.2241 290.298 64.2241 290.298C64.2241 290.298 50.429 220.242 118.419 219.657C186.41 219.054 182.626 288.525 182.626 288.525H472.817C472.817 288.525 462.628 222.601 531.288 222.601C599.929 222.601 590.726 283.204 590.726 283.204L627.46 272.563C641.196 249.949 636.388 229.695 626.869 219.94ZM620.129 197.629C613.626 205.149 592.874 199.26 577.601 193.124C562.327 186.987 571.511 187.129 571.511 187.129C605.506 187.431 624.07 178.19 624.07 178.19C624.07 178.19 626.63 190.109 620.129 197.629ZM551.646 151.959L566.426 139.331L563.549 145.68C615.537 163.416 623.341 174.803 623.341 174.803C623.341 174.803 559.765 158.84 554.366 156.393C548.926 153.945 551.646 151.959 551.646 151.959ZM522.085 157.067C526.775 163.7 542.285 169.482 527.504 169.695C512.724 169.908 251.444 184.77 251.444 184.77L253.415 181.223L510.911 167.034C510.911 167.034 516.823 167.708 514.202 163.381C511.581 159.053 505.058 153.536 520.449 148.412C535.821 143.286 520.449 141.991 520.449 141.991C520.449 141.991 333.919 90.4866 205.171 183.406C207.24 181.081 294.169 85.6979 538.836 141.991C538.836 141.991 517.395 150.398 522.085 157.067ZM488.996 190.676C488.996 192.024 487.774 193.124 486.277 193.124H461.643C460.145 193.124 458.943 192.024 458.943 190.676C458.943 189.328 460.145 188.246 461.643 188.246H486.277C487.772 188.246 488.996 189.328 488.996 190.676ZM361.943 267.189C361.312 265.594 344.66 223.028 367.382 183.44C367.382 183.44 355.083 237.907 361.943 267.189ZM344.561 193.124C344.561 194.472 343.339 195.554 341.842 195.554H317.207C315.71 195.554 314.507 194.472 314.507 193.124C314.507 191.776 315.71 190.676 317.207 190.676H341.842C343.337 190.676 344.561 191.776 344.561 193.124ZM253.572 160.827C295.943 138.87 364.426 132.893 364.426 132.893L353.824 171.681L257.258 177.232C259.977 171.681 253.572 160.827 253.572 160.827ZM384.134 171.681L388.311 132.45C414.68 129.576 471.595 135.997 471.595 135.997L470.097 166.591L384.134 171.681ZM475.28 165.048L476.522 137.557L494.987 139.331L506.812 165.048H475.28ZM248.488 180.194L227.46 178.19C227.46 178.19 245.847 175.902 249.473 172.355C249.473 172.355 253.08 176.931 248.488 180.194ZM402.855 116.044C487.045 115.689 518.636 128.902 518.636 128.902C428.475 114.714 327.968 123.582 306.289 128.902C284.611 134.223 281.655 128.902 281.655 128.902C281.655 128.902 318.664 116.399 402.855 116.044ZM191.947 165.846C199.791 161.412 278.049 126.827 276.078 128.317C274.107 129.789 281.655 134.525 281.655 134.525C270.245 137.877 216.286 167.034 199.87 170.28C183.454 173.543 191.947 165.846 191.947 165.846ZM195.909 188.317C195.475 190.091 186.843 226.308 191.494 255.714C191.494 255.714 181.166 218.38 195.909 188.317ZM170.644 176.275L157.834 193.124C157.834 193.124 78.7682 188.495 51.2764 195.163C63.1993 192.148 142.423 172.515 170.644 176.275ZM77.4478 202.293C83.5965 203.18 26.4451 230.44 22.011 224.889C17.5768 219.355 12.4135 215.808 12.4135 215.808C22.5037 202.949 71.2794 201.406 77.4478 202.293ZM5.98891 250.393C5.98891 250.393 14.8572 247.289 18.9366 252.379C22.9963 257.487 24.9671 263.251 24.9671 263.251H10.7975L5.98891 250.393ZM622.829 269.459L595.987 276.323C595.987 276.323 600.579 215.205 531.604 218.468C462.628 221.714 467.239 284.392 467.239 284.392H187.553C187.553 284.392 187.06 215.808 119.405 216.996C51.7297 218.167 60.2629 282.264 59.9476 286.166C59.6323 290.052 7.07281 282.317 11.0143 267.242L51.0793 267.543C51.0793 267.543 53.7004 214.62 121.375 211.675C189.031 208.714 191.001 279.657 191.001 279.657L458.943 272.563C458.943 272.563 468.875 220.685 520.114 213.591C571.353 206.497 592.125 234.431 597.958 254.383L623.578 252.432C623.578 252.432 626.534 235.317 632.446 234.643C632.446 234.643 633.924 263.482 622.829 269.459Z" fill="#050B20"/>
<path d="M47.256 208.714C47.256 208.714 37.4023 219.018 29.4011 220.349C21.3999 221.679 18.9365 214.817 18.9365 214.817C18.9365 214.817 24.5925 210.594 47.256 208.714Z" fill="#1D1D1B"/>
<path d="M47.256 208.714C47.256 208.714 37.4023 219.018 29.4011 220.349C21.3999 221.679 18.9365 214.817 18.9365 214.817C18.9365 214.817 24.5925 210.594 47.256 208.714Z" fill="#1D1D1B"/>
<path d="M534.069 240.271C512.366 240.271 494.769 256.063 494.769 275.53C494.769 295.018 512.366 310.796 534.069 310.796C555.771 310.796 573.393 295.018 573.393 275.53C573.393 256.063 555.771 240.271 534.069 240.271ZM546.808 247.869L534.069 267.38L523.502 247.869C532.936 240.715 546.808 247.869 546.808 247.869ZM538.6 275.53C538.6 278.127 536.218 280.223 533.293 280.223C530.368 280.223 527.984 278.127 527.984 275.53C527.984 272.942 530.368 270.841 533.293 270.841C536.218 270.841 538.6 272.942 538.6 275.53ZM510.787 253.413L524.232 272.538L500.124 272.07C497.365 261.222 510.787 253.413 510.787 253.413ZM501.799 281.902L526.922 281.353L514.066 299.716C502.317 296.272 501.799 281.902 501.799 281.902ZM522.416 304.721L534.682 284.98L545.722 304.255C536.45 311.622 522.416 304.721 522.416 304.721ZM554.9 300.114L541.501 280.966L565.609 281.496C568.323 292.324 554.9 300.114 554.9 300.114ZM542.585 271.963L558.13 255.384C569.241 260.247 567.566 274.555 567.566 274.555L542.585 271.963Z" fill="#1D1D1B"/>
<path d="M533.291 227.533C503.144 227.533 478.682 249.464 478.682 276.507C478.682 303.576 503.144 325.506 533.291 325.506C563.437 325.506 587.902 303.576 587.902 276.507C587.902 249.465 563.439 227.533 533.291 227.533ZM534.069 314.318C510.198 314.318 490.827 296.953 490.827 275.53C490.827 254.112 510.198 236.747 534.069 236.747C557.943 236.747 577.309 254.112 577.309 275.53C577.309 296.953 557.943 314.318 534.069 314.318Z" fill="#1D1D1B"/>
<path d="M534.069 240.271C512.366 240.271 494.769 256.063 494.769 275.53C494.769 295.018 512.366 310.796 534.069 310.796C555.771 310.796 573.393 295.018 573.393 275.53C573.393 256.063 555.771 240.271 534.069 240.271ZM546.808 247.869L534.069 267.38L523.502 247.869C532.936 240.715 546.808 247.869 546.808 247.869ZM538.6 275.53C538.6 278.127 536.218 280.223 533.293 280.223C530.368 280.223 527.984 278.127 527.984 275.53C527.984 272.942 530.368 270.841 533.293 270.841C536.218 270.841 538.6 272.942 538.6 275.53ZM510.787 253.413L524.232 272.538L500.124 272.07C497.365 261.222 510.787 253.413 510.787 253.413ZM501.799 281.902L526.922 281.353L514.066 299.716C502.317 296.272 501.799 281.902 501.799 281.902ZM522.416 304.721L534.682 284.98L545.722 304.255C536.45 311.622 522.416 304.721 522.416 304.721ZM554.9 300.114L541.501 280.966L565.609 281.496C568.323 292.324 554.9 300.114 554.9 300.114ZM542.585 271.963L558.13 255.384C569.241 260.247 567.566 274.555 567.566 274.555L542.585 271.963Z" fill="#1D1D1B"/>
<path d="M534.069 240.271C512.366 240.271 494.769 256.063 494.769 275.53C494.769 295.018 512.366 310.796 534.069 310.796C555.771 310.796 573.393 295.018 573.393 275.53C573.393 256.063 555.771 240.271 534.069 240.271ZM546.808 247.869L534.069 267.38L523.502 247.869C532.936 240.715 546.808 247.869 546.808 247.869ZM538.6 275.53C538.6 278.127 536.218 280.223 533.293 280.223C530.368 280.223 527.984 278.127 527.984 275.53C527.984 272.942 530.368 270.841 533.293 270.841C536.218 270.841 538.6 272.942 538.6 275.53ZM510.787 253.413L524.232 272.538L500.124 272.07C497.365 261.222 510.787 253.413 510.787 253.413ZM501.799 281.902L526.922 281.353L514.066 299.716C502.317 296.272 501.799 281.902 501.799 281.902ZM522.416 304.721L534.682 284.98L545.722 304.255C536.45 311.622 522.416 304.721 522.416 304.721ZM554.9 300.114L541.501 280.966L565.609 281.496C568.323 292.324 554.9 300.114 554.9 300.114ZM542.585 271.963L558.13 255.384C569.241 260.247 567.566 274.555 567.566 274.555L542.585 271.963Z" fill="#1D1D1B"/>
<path d="M124.156 240.271C102.453 240.271 84.856 256.063 84.856 275.53C84.856 295.018 102.453 310.796 124.156 310.796C145.858 310.796 163.48 295.018 163.48 275.53C163.48 256.063 145.858 240.271 124.156 240.271ZM136.895 247.869L124.156 267.38L113.589 247.869C123.023 240.715 136.895 247.869 136.895 247.869ZM128.687 275.53C128.687 278.127 126.304 280.223 123.38 280.223C120.455 280.223 118.071 278.127 118.071 275.53C118.071 272.942 120.455 270.841 123.38 270.841C126.304 270.841 128.687 272.942 128.687 275.53ZM100.874 253.413L114.318 272.538L90.2104 272.07C87.4514 261.222 100.874 253.413 100.874 253.413ZM91.8856 281.902L117.008 281.353L104.153 299.716C92.4039 296.272 91.8856 281.902 91.8856 281.902ZM112.503 304.721L124.769 284.98L135.807 304.255C126.537 311.622 112.503 304.721 112.503 304.721ZM144.987 300.114L131.588 280.966L155.696 281.496C158.41 292.324 144.987 300.114 144.987 300.114ZM132.672 271.963L148.217 255.384C159.328 260.247 157.653 274.555 157.653 274.555L132.672 271.963Z" fill="#1D1D1B"/>
<path d="M123.378 227.533C93.2318 227.533 68.769 249.464 68.769 276.507C68.769 303.576 93.2318 325.506 123.378 325.506C153.524 325.506 177.989 303.576 177.989 276.507C177.989 249.465 153.526 227.533 123.378 227.533ZM124.157 314.318C100.285 314.318 80.9147 296.953 80.9147 275.53C80.9147 254.112 100.285 236.747 124.157 236.747C148.03 236.747 167.396 254.112 167.396 275.53C167.396 296.953 148.03 314.318 124.157 314.318Z" fill="#1D1D1B"/>
<path d="M124.156 240.271C102.453 240.271 84.856 256.063 84.856 275.53C84.856 295.018 102.453 310.796 124.156 310.796C145.858 310.796 163.48 295.018 163.48 275.53C163.48 256.063 145.858 240.271 124.156 240.271ZM136.895 247.869L124.156 267.38L113.589 247.869C123.023 240.715 136.895 247.869 136.895 247.869ZM128.687 275.53C128.687 278.127 126.304 280.223 123.38 280.223C120.455 280.223 118.071 278.127 118.071 275.53C118.071 272.942 120.455 270.841 123.38 270.841C126.304 270.841 128.687 272.942 128.687 275.53ZM100.874 253.413L114.318 272.538L90.2104 272.07C87.4514 261.222 100.874 253.413 100.874 253.413ZM91.8856 281.902L117.008 281.353L104.153 299.716C92.4039 296.272 91.8856 281.902 91.8856 281.902ZM112.503 304.721L124.769 284.98L135.807 304.255C126.537 311.622 112.503 304.721 112.503 304.721ZM144.987 300.114L131.588 280.966L155.696 281.496C158.41 292.324 144.987 300.114 144.987 300.114ZM132.672 271.963L148.217 255.384C159.328 260.247 157.653 274.555 157.653 274.555L132.672 271.963Z" fill="#1D1D1B"/>
<path d="M124.156 240.271C102.453 240.271 84.856 256.063 84.856 275.53C84.856 295.018 102.453 310.796 124.156 310.796C145.858 310.796 163.48 295.018 163.48 275.53C163.48 256.063 145.858 240.271 124.156 240.271ZM136.895 247.869L124.156 267.38L113.589 247.869C123.023 240.715 136.895 247.869 136.895 247.869ZM128.687 275.53C128.687 278.127 126.304 280.223 123.38 280.223C120.455 280.223 118.071 278.127 118.071 275.53C118.071 272.942 120.455 270.841 123.38 270.841C126.304 270.841 128.687 272.942 128.687 275.53ZM100.874 253.413L114.318 272.538L90.2104 272.07C87.4514 261.222 100.874 253.413 100.874 253.413ZM91.8856 281.902L117.008 281.353L104.153 299.716C92.4039 296.272 91.8856 281.902 91.8856 281.902ZM112.503 304.721L124.769 284.98L135.807 304.255C126.537 311.622 112.503 304.721 112.503 304.721ZM144.987 300.114L131.588 280.966L155.696 281.496C158.41 292.324 144.987 300.114 144.987 300.114ZM132.672 271.963L148.217 255.384C159.328 260.247 157.653 274.555 157.653 274.555L132.672 271.963Z" fill="#1D1D1B"/>
</svg>
