<svg width="636" height="326" viewBox="0 0 636 326" fill="none" xmlns="http://www.w3.org/2000/svg">
<path d="M408.443 112.341L370.819 82.5109C361.188 88.4505 348.134 92.2197 334.41 92.1987C302.157 92.1492 276.162 71.5397 276.263 46.0983C276.365 20.657 302.523 0.127375 334.776 0.176815C367.029 0.226256 393.024 20.8358 392.922 46.2772C392.879 57.1033 388.037 66.8394 380.456 74.9474L418.08 104.777L408.443 112.341ZM334.735 10.4616C310.031 10.4237 290.068 26.0911 289.99 45.5781C289.913 65.065 309.751 80.7934 334.455 80.8312C359.159 80.8691 379.122 65.2018 379.2 45.7148C379.278 26.2278 359.44 10.4995 334.735 10.4616Z" fill="#D34319"/>
<path d="M18.9365 214.956C18.9365 214.956 24.5925 210.733 47.256 208.855C47.256 208.855 37.4023 219.16 29.4011 220.49C21.3999 221.82 18.9365 214.956 18.9365 214.956Z" fill="#1D1D1B"/>
<path d="M626.869 220.082C617.331 210.327 634.082 181.364 624.228 171.024C614.374 160.667 568.062 142.931 568.062 142.931L574.802 130.817C369.353 96.6758 299.885 119.732 281.655 124.166C263.426 128.6 191.494 163.629 191.494 163.629C11.6646 175.6 8.70852 210.629 8.70852 210.629C-3.76623 217.421 0.825583 242.252 0.825583 242.252C0.825583 242.252 0.825579 255.553 5.10207 272.119C9.35886 288.666 64.2241 290.44 64.2241 290.44C64.2241 290.44 50.429 220.383 118.419 219.798C186.41 219.195 182.626 288.666 182.626 288.666H472.817C472.817 288.666 462.628 222.742 531.288 222.742C599.929 222.742 590.726 283.345 590.726 283.345L627.46 272.704C641.196 250.091 636.388 229.836 626.869 220.082ZM620.129 197.77C613.626 205.29 592.874 199.402 577.601 193.265C562.327 187.129 571.511 187.27 571.511 187.27C605.506 187.572 624.07 178.332 624.07 178.332C624.07 178.332 626.63 190.25 620.129 197.77ZM551.646 152.1L566.426 139.472L563.549 145.822C615.537 163.558 623.341 174.944 623.341 174.944C623.341 174.944 559.765 158.982 554.366 156.534C548.926 154.087 551.646 152.1 551.646 152.1ZM522.085 157.208C526.775 163.841 542.285 169.623 527.504 169.836C512.724 170.049 251.444 184.912 251.444 184.912L253.415 181.364L510.911 167.176C510.911 167.176 516.823 167.85 514.202 163.522C511.581 159.195 505.058 153.677 520.449 148.553C535.821 143.427 520.449 142.133 520.449 142.133C520.449 142.133 333.919 90.628 205.171 183.548C207.24 181.223 294.169 85.8393 538.836 142.133C538.836 142.133 517.395 150.54 522.085 157.208ZM488.996 190.818C488.996 192.166 487.774 193.265 486.277 193.265H461.643C460.145 193.265 458.943 192.166 458.943 190.818C458.943 189.47 460.145 188.388 461.643 188.388H486.277C487.772 188.388 488.996 189.47 488.996 190.818ZM361.943 267.33C361.312 265.736 344.66 223.17 367.382 183.581C367.382 183.581 355.083 238.048 361.943 267.33ZM344.561 193.265C344.561 194.613 343.339 195.695 341.842 195.695H317.207C315.71 195.695 314.507 194.613 314.507 193.265C314.507 191.917 315.71 190.818 317.207 190.818H341.842C343.337 190.818 344.561 191.917 344.561 193.265ZM253.572 160.968C295.943 139.011 364.426 133.034 364.426 133.034L353.824 171.823L257.258 177.374C259.977 171.823 253.572 160.968 253.572 160.968ZM384.134 171.823L388.311 132.591C414.68 129.718 471.595 136.138 471.595 136.138L470.097 166.732L384.134 171.823ZM475.28 165.189L476.522 137.699L494.987 139.472L506.812 165.189H475.28ZM248.488 180.336L227.46 178.332C227.46 178.332 245.847 176.044 249.473 172.496C249.473 172.496 253.08 177.072 248.488 180.336ZM402.855 116.185C487.045 115.831 518.636 129.044 518.636 129.044C428.475 114.855 327.968 123.723 306.289 129.044C284.611 134.364 281.655 129.044 281.655 129.044C281.655 129.044 318.664 116.54 402.855 116.185ZM191.947 165.987C199.791 161.554 278.049 126.969 276.078 128.458C274.107 129.93 281.655 134.666 281.655 134.666C270.245 138.018 216.286 167.176 199.87 170.421C183.454 173.685 191.947 165.987 191.947 165.987ZM195.909 188.459C195.475 190.232 186.843 226.449 191.494 255.855C191.494 255.855 181.166 218.521 195.909 188.459ZM170.644 176.416L157.834 193.265C157.834 193.265 78.7682 188.636 51.2764 195.305C63.1993 192.29 142.423 172.656 170.644 176.416ZM77.4478 202.435C83.5965 203.321 26.4451 230.581 22.011 225.03C17.5768 219.496 12.4135 215.949 12.4135 215.949C22.5037 203.091 71.2794 201.548 77.4478 202.435ZM5.98891 250.534C5.98891 250.534 14.8572 247.43 18.9366 252.521C22.9963 257.628 24.9671 263.393 24.9671 263.393H10.7975L5.98891 250.534ZM622.829 269.6L595.987 276.464C595.987 276.464 600.579 215.346 531.604 218.61C462.628 221.855 467.239 284.534 467.239 284.534H187.553C187.553 284.534 187.06 215.949 119.405 217.138C51.7297 218.308 60.2629 282.405 59.9476 286.307C59.6323 290.193 7.07281 282.459 11.0143 267.383L51.0793 267.685C51.0793 267.685 53.7004 214.761 121.375 211.817C189.031 208.855 191.001 279.798 191.001 279.798L458.943 272.704C458.943 272.704 468.875 220.827 520.114 213.732C571.353 206.638 592.125 234.572 597.958 254.525L623.578 252.574C623.578 252.574 626.534 235.459 632.446 234.785C632.446 234.785 633.924 263.623 622.829 269.6Z" fill="white"/>
<path d="M47.256 208.855C47.256 208.855 37.4023 219.16 29.4011 220.49C21.3999 221.82 18.9365 214.958 18.9365 214.958C18.9365 214.958 24.5925 210.735 47.256 208.855Z" fill="#1D1D1B"/>
<path d="M47.256 208.855C47.256 208.855 37.4023 219.16 29.4011 220.49C21.3999 221.82 18.9365 214.958 18.9365 214.958C18.9365 214.958 24.5925 210.735 47.256 208.855Z" fill="white"/>
<path d="M534.069 240.413C512.366 240.413 494.769 256.205 494.769 275.671C494.769 295.16 512.366 310.937 534.069 310.937C555.771 310.937 573.393 295.16 573.393 275.671C573.393 256.205 555.771 240.413 534.069 240.413ZM546.808 248.011L534.069 267.522L523.502 248.011C532.936 240.856 546.808 248.011 546.808 248.011ZM538.6 275.671C538.6 278.268 536.218 280.364 533.293 280.364C530.368 280.364 527.984 278.268 527.984 275.671C527.984 273.084 530.368 270.982 533.293 270.982C536.218 270.982 538.6 273.084 538.6 275.671ZM510.787 253.555L524.232 272.679L500.124 272.211C497.365 261.364 510.787 253.555 510.787 253.555ZM501.799 282.044L526.922 281.494L514.066 299.858C502.317 296.413 501.799 282.044 501.799 282.044ZM522.416 304.863L534.682 285.121L545.722 304.396C536.45 311.764 522.416 304.863 522.416 304.863ZM554.9 300.255L541.501 281.107L565.609 281.638C568.323 292.465 554.9 300.255 554.9 300.255ZM542.585 272.105L558.13 255.525C569.241 260.388 567.566 274.696 567.566 274.696L542.585 272.105Z" fill="#1D1D1B"/>
<path d="M533.291 227.675C503.144 227.675 478.682 249.605 478.682 276.648C478.682 303.717 503.144 325.647 533.291 325.647C563.437 325.647 587.902 303.717 587.902 276.648C587.902 249.607 563.439 227.675 533.291 227.675ZM534.069 314.46C510.198 314.46 490.827 297.094 490.827 275.671C490.827 254.253 510.198 236.888 534.069 236.888C557.943 236.888 577.309 254.253 577.309 275.671C577.309 297.094 557.943 314.46 534.069 314.46Z" fill="white"/>
<path d="M534.069 240.413C512.366 240.413 494.769 256.205 494.769 275.671C494.769 295.16 512.366 310.937 534.069 310.937C555.771 310.937 573.393 295.16 573.393 275.671C573.393 256.205 555.771 240.413 534.069 240.413ZM546.808 248.011L534.069 267.522L523.502 248.011C532.936 240.856 546.808 248.011 546.808 248.011ZM538.6 275.671C538.6 278.268 536.218 280.364 533.293 280.364C530.368 280.364 527.984 278.268 527.984 275.671C527.984 273.084 530.368 270.982 533.293 270.982C536.218 270.982 538.6 273.084 538.6 275.671ZM510.787 253.555L524.232 272.679L500.124 272.211C497.365 261.364 510.787 253.555 510.787 253.555ZM501.799 282.044L526.922 281.494L514.066 299.858C502.317 296.413 501.799 282.044 501.799 282.044ZM522.416 304.863L534.682 285.121L545.722 304.396C536.45 311.764 522.416 304.863 522.416 304.863ZM554.9 300.255L541.501 281.107L565.609 281.638C568.323 292.465 554.9 300.255 554.9 300.255ZM542.585 272.105L558.13 255.525C569.241 260.388 567.566 274.696 567.566 274.696L542.585 272.105Z" fill="#1D1D1B"/>
<path d="M534.069 240.413C512.366 240.413 494.769 256.205 494.769 275.671C494.769 295.16 512.366 310.937 534.069 310.937C555.771 310.937 573.393 295.16 573.393 275.671C573.393 256.205 555.771 240.413 534.069 240.413ZM546.808 248.011L534.069 267.522L523.502 248.011C532.936 240.856 546.808 248.011 546.808 248.011ZM538.6 275.671C538.6 278.268 536.218 280.364 533.293 280.364C530.368 280.364 527.984 278.268 527.984 275.671C527.984 273.084 530.368 270.982 533.293 270.982C536.218 270.982 538.6 273.084 538.6 275.671ZM510.787 253.555L524.232 272.679L500.124 272.211C497.365 261.364 510.787 253.555 510.787 253.555ZM501.799 282.044L526.922 281.494L514.066 299.858C502.317 296.413 501.799 282.044 501.799 282.044ZM522.416 304.863L534.682 285.121L545.722 304.396C536.45 311.764 522.416 304.863 522.416 304.863ZM554.9 300.255L541.501 281.107L565.609 281.638C568.323 292.465 554.9 300.255 554.9 300.255ZM542.585 272.105L558.13 255.525C569.241 260.388 567.566 274.696 567.566 274.696L542.585 272.105Z" fill="white"/>
<path d="M124.156 240.413C102.453 240.413 84.856 256.205 84.856 275.671C84.856 295.16 102.453 310.937 124.156 310.937C145.858 310.937 163.48 295.16 163.48 275.671C163.48 256.205 145.858 240.413 124.156 240.413ZM136.895 248.011L124.156 267.522L113.589 248.011C123.023 240.856 136.895 248.011 136.895 248.011ZM128.687 275.671C128.687 278.268 126.304 280.364 123.38 280.364C120.455 280.364 118.071 278.268 118.071 275.671C118.071 273.084 120.455 270.982 123.38 270.982C126.304 270.982 128.687 273.084 128.687 275.671ZM100.874 253.555L114.318 272.679L90.2104 272.211C87.4514 261.364 100.874 253.555 100.874 253.555ZM91.8856 282.044L117.008 281.494L104.153 299.858C92.4039 296.413 91.8856 282.044 91.8856 282.044ZM112.503 304.863L124.769 285.121L135.807 304.396C126.537 311.764 112.503 304.863 112.503 304.863ZM144.987 300.255L131.588 281.107L155.696 281.638C158.41 292.465 144.987 300.255 144.987 300.255ZM132.672 272.105L148.217 255.525C159.328 260.388 157.653 274.696 157.653 274.696L132.672 272.105Z" fill="#1D1D1B"/>
<path d="M123.378 227.675C93.2318 227.675 68.769 249.605 68.769 276.648C68.769 303.717 93.2318 325.647 123.378 325.647C153.524 325.647 177.989 303.717 177.989 276.648C177.989 249.607 153.526 227.675 123.378 227.675ZM124.157 314.46C100.285 314.46 80.9147 297.094 80.9147 275.671C80.9147 254.253 100.285 236.888 124.157 236.888C148.03 236.888 167.396 254.253 167.396 275.671C167.396 297.094 148.03 314.46 124.157 314.46Z" fill="white"/>
<path d="M124.156 240.413C102.453 240.413 84.856 256.205 84.856 275.671C84.856 295.16 102.453 310.937 124.156 310.937C145.858 310.937 163.48 295.16 163.48 275.671C163.48 256.205 145.858 240.413 124.156 240.413ZM136.895 248.011L124.156 267.522L113.589 248.011C123.023 240.856 136.895 248.011 136.895 248.011ZM128.687 275.671C128.687 278.268 126.304 280.364 123.38 280.364C120.455 280.364 118.071 278.268 118.071 275.671C118.071 273.084 120.455 270.982 123.38 270.982C126.304 270.982 128.687 273.084 128.687 275.671ZM100.874 253.555L114.318 272.679L90.2104 272.211C87.4514 261.364 100.874 253.555 100.874 253.555ZM91.8856 282.044L117.008 281.494L104.153 299.858C92.4039 296.413 91.8856 282.044 91.8856 282.044ZM112.503 304.863L124.769 285.121L135.807 304.396C126.537 311.764 112.503 304.863 112.503 304.863ZM144.987 300.255L131.588 281.107L155.696 281.638C158.41 292.465 144.987 300.255 144.987 300.255ZM132.672 272.105L148.217 255.525C159.328 260.388 157.653 274.696 157.653 274.696L132.672 272.105Z" fill="#1D1D1B"/>
<path d="M124.156 240.413C102.453 240.413 84.856 256.205 84.856 275.671C84.856 295.16 102.453 310.937 124.156 310.937C145.858 310.937 163.48 295.16 163.48 275.671C163.48 256.205 145.858 240.413 124.156 240.413ZM136.895 248.011L124.156 267.522L113.589 248.011C123.023 240.856 136.895 248.011 136.895 248.011ZM128.687 275.671C128.687 278.268 126.304 280.364 123.38 280.364C120.455 280.364 118.071 278.268 118.071 275.671C118.071 273.084 120.455 270.982 123.38 270.982C126.304 270.982 128.687 273.084 128.687 275.671ZM100.874 253.555L114.318 272.679L90.2104 272.211C87.4514 261.364 100.874 253.555 100.874 253.555ZM91.8856 282.044L117.008 281.494L104.153 299.858C92.4039 296.413 91.8856 282.044 91.8856 282.044ZM112.503 304.863L124.769 285.121L135.807 304.396C126.537 311.764 112.503 304.863 112.503 304.863ZM144.987 300.255L131.588 281.107L155.696 281.638C158.41 292.465 144.987 300.255 144.987 300.255ZM132.672 272.105L148.217 255.525C159.328 260.388 157.653 274.696 157.653 274.696L132.672 272.105Z" fill="white"/>
</svg>
