<svg width="11" height="13" viewBox="0 0 11 13" fill="none" xmlns="http://www.w3.org/2000/svg">
<path d="M8.89982 12.5C8.65982 12.5 8.43316 12.4333 8.21982 12.3L5.61982 10.66C5.53982 10.6067 5.45982 10.6067 5.37982 10.66L2.77982 12.3C2.53982 12.46 2.27316 12.52 1.97982 12.48C1.68649 12.44 1.43316 12.3267 1.21982 12.14C0.953158 11.9 0.819824 11.5933 0.819824 11.22V1.78C0.819824 1.43333 0.946491 1.13333 1.19982 0.88C1.45316 0.626667 1.75316 0.5 2.09982 0.5H8.89982C9.24649 0.5 9.54649 0.626667 9.79982 0.88C10.0532 1.13333 10.1798 1.43333 10.1798 1.78V11.22C10.1798 11.5667 10.0532 11.8667 9.79982 12.12C9.54649 12.3733 9.24649 12.5 8.89982 12.5ZM5.49982 9.58C5.73982 9.58 5.96649 9.64667 6.17982 9.78L8.77982 11.42C8.80649 11.4467 8.84649 11.46 8.89982 11.46C8.95316 11.46 8.99982 11.44 9.03982 11.4C9.07982 11.36 9.09982 11.3 9.09982 11.22V1.78C9.09982 1.7 9.07982 1.64 9.03982 1.6C8.99982 1.56 8.95316 1.54 8.89982 1.54H2.09982C2.04649 1.54 1.99982 1.56 1.95982 1.6C1.91982 1.64 1.89982 1.7 1.89982 1.78V11.22C1.89982 11.3 1.93316 11.3667 1.99982 11.42C2.06649 11.4733 2.13982 11.4733 2.21982 11.42L4.81982 9.78C5.03316 9.64667 5.25982 9.58 5.49982 9.58Z" fill="#050B20"/>
</svg>
