<svg width="19" height="16" viewBox="0 0 19 16" fill="none" xmlns="http://www.w3.org/2000/svg">
<path d="M18.0498 9.63998C18.0498 11.68 17.4498 13.5 16.2498 15.1C16.1298 15.26 15.9698 15.35 15.7698 15.37C15.5698 15.39 15.3898 15.34 15.2298 15.22C15.0698 15.1 14.9798 14.95 14.9598 14.77C14.9398 14.59 14.9898 14.42 15.1098 14.26C16.1498 12.9 16.6698 11.36 16.6698 9.63998C16.6698 8.27998 16.3298 7.01998 15.6498 5.85998C14.9698 4.69998 14.0398 3.77998 12.8598 3.09998C11.6798 2.41998 10.4098 2.07998 9.0498 2.07998C7.6898 2.07998 6.4198 2.41998 5.2398 3.09998C4.0598 3.77998 3.1298 4.69998 2.4498 5.85998C1.7698 7.01998 1.4298 8.27998 1.4298 9.63998C1.4298 11.36 1.9498 12.9 2.9898 14.26C3.1098 14.42 3.1598 14.59 3.1398 14.77C3.1198 14.95 3.0298 15.1 2.8698 15.22C2.7098 15.34 2.5298 15.39 2.3298 15.37C2.1298 15.35 1.9698 15.26 1.8498 15.1C0.649805 13.5 0.0498047 11.68 0.0498047 9.63998C0.0498047 8.03998 0.449805 6.54998 1.2498 5.16998C2.0498 3.78998 3.1398 2.69998 4.5198 1.89998C5.8998 1.09998 7.4098 0.699983 9.0498 0.699983C10.6898 0.699983 12.1998 1.09998 13.5798 1.89998C14.9598 2.69998 16.0498 3.78998 16.8498 5.16998C17.6498 6.54998 18.0498 8.03998 18.0498 9.63998ZM13.4898 5.43998C13.6498 5.55998 13.7298 5.71998 13.7298 5.91998C13.7298 6.11998 13.6498 6.27998 13.4898 6.39998L11.2098 8.73998C11.4098 9.09998 11.5098 9.47998 11.5098 9.87998C11.5098 10.56 11.2698 11.14 10.7898 11.62C10.3098 12.1 9.7298 12.34 9.0498 12.34C8.3698 12.34 7.7898 12.1 7.3098 11.62C6.8298 11.14 6.5898 10.56 6.5898 9.87998C6.5898 9.19998 6.8298 8.61998 7.3098 8.13998C7.7898 7.65998 8.3698 7.41998 9.0498 7.41998C9.4498 7.41998 9.8298 7.51998 10.1898 7.71998L12.5298 5.43998C12.6498 5.27998 12.8098 5.19998 13.0098 5.19998C13.2098 5.19998 13.3698 5.27998 13.4898 5.43998ZM10.1298 9.87998C10.1298 9.59998 10.0198 9.35998 9.7998 9.15998C9.5798 8.95998 9.3298 8.85998 9.0498 8.85998C8.7698 8.85998 8.5198 8.95998 8.2998 9.15998C8.0798 9.35998 7.9698 9.59998 7.9698 9.87998C7.9698 10.16 8.0798 10.41 8.2998 10.63C8.5198 10.85 8.7698 10.96 9.0498 10.96C9.3298 10.96 9.5798 10.85 9.7998 10.63C10.0198 10.41 10.1298 10.16 10.1298 9.87998Z" fill="#050B20"/>
</svg>
