<svg width="19" height="19" viewBox="0 0 19 19" fill="none" xmlns="http://www.w3.org/2000/svg">
<g clip-path="url(#clip0_258_2804)">
<path d="M10.7098 3.38002C10.7098 3.22002 10.6598 3.09002 10.5598 2.99002C10.4598 2.89002 10.3298 2.84002 10.1698 2.84002H4.52982C4.36982 2.84002 4.23982 2.89002 4.13982 2.99002C4.03982 3.09002 3.98982 3.22002 3.98982 3.38002V7.88002C3.98982 8.04002 4.03982 8.18002 4.13982 8.30002C4.23982 8.42002 4.36982 8.48002 4.52982 8.48002H10.1698C10.3298 8.48002 10.4598 8.42002 10.5598 8.30002C10.6598 8.18002 10.7098 8.04002 10.7098 7.88002V3.38002ZM9.56982 7.34002H5.06982V3.98002H9.56982V7.34002ZM17.1898 3.98002L14.9098 2.90002C14.7898 2.82002 14.6498 2.80002 14.4898 2.84002C14.3298 2.88002 14.2198 2.97002 14.1598 3.11002C14.0998 3.25002 14.0898 3.40002 14.1298 3.56002C14.1698 3.72002 14.2698 3.82002 14.4298 3.86002L15.2698 4.34002L15.2098 4.52002C15.2098 4.88002 15.3198 5.20002 15.5398 5.48002C15.7598 5.76002 16.0298 5.96002 16.3498 6.08002V12.92C16.3498 13.08 16.2898 13.22 16.1698 13.34C16.0498 13.46 15.9198 13.52 15.7798 13.52C15.6398 13.52 15.5098 13.46 15.3898 13.34C15.2698 13.22 15.2098 13.08 15.2098 12.92V8.42002C15.2098 7.78002 14.9798 7.20002 14.5198 6.68002C14.0598 6.16002 13.5498 5.84002 12.9898 5.72002V2.24002C12.9898 1.64002 12.7698 1.12002 12.3298 0.680019C11.8898 0.240021 11.3698 0.0200195 10.7698 0.0200195H3.98982C3.38982 0.0200195 2.85982 0.240021 2.39982 0.680019C1.93982 1.12002 1.70982 1.64002 1.70982 2.24002V14.84L0.929824 15.26C0.689824 15.38 0.569824 15.54 0.569824 15.74V17.42C0.569824 17.58 0.629824 17.72 0.749824 17.84C0.869824 17.96 1.00982 18.02 1.16982 18.02H13.5298C13.6898 18.02 13.8198 17.96 13.9198 17.84C14.0198 17.72 14.0698 17.58 14.0698 17.42V15.74C14.0698 15.54 13.9698 15.38 13.7698 15.26L12.9898 14.84V6.86002C13.2698 6.98002 13.5198 7.19002 13.7398 7.49002C13.9598 7.79002 14.0698 8.10002 14.0698 8.42002V12.92C14.0698 13.4 14.2398 13.81 14.5798 14.15C14.9198 14.49 15.3198 14.66 15.7798 14.66C16.2398 14.66 16.6398 14.49 16.9798 14.15C17.3198 13.81 17.4898 13.4 17.4898 12.92V4.52002C17.4898 4.28002 17.3898 4.10002 17.1898 3.98002ZM12.9898 16.88H1.70982V16.1L2.54982 15.68C2.74982 15.6 2.84982 15.44 2.84982 15.2V2.24002C2.84982 1.96002 2.95982 1.71002 3.17982 1.49002C3.39982 1.27002 3.66982 1.16002 3.98982 1.16002H10.7698C11.0498 1.16002 11.2998 1.27002 11.5198 1.49002C11.7398 1.71002 11.8498 1.96002 11.8498 2.24002V15.2C11.8498 15.44 11.9498 15.6 12.1498 15.68L12.9898 16.1V16.88Z" fill="#050B20"/>
</g>
<defs>
<clipPath id="clip0_258_2804">
<rect width="18" height="18" fill="white" transform="matrix(1 0 0 -1 0.0297852 18.02)"/>
</clipPath>
</defs>
</svg>
