<svg width="20" height="21" viewBox="0 0 20 21" fill="none" xmlns="http://www.w3.org/2000/svg">
<path fill-rule="evenodd" clip-rule="evenodd" d="M8.04913 0.201763C9.98892 -0.203386 11.9996 0.00454604 13.8269 0.799272C15.6541 1.59399 17.2159 2.93981 18.3147 4.66651C19.4135 6.39323 20 8.42326 20 10.5V12.1154C20 13.0437 19.6488 13.9339 19.0237 14.5903C18.3986 15.2466 17.5508 15.6154 16.6667 15.6154C15.7827 15.6154 14.9348 15.2466 14.3096 14.5903C14.0803 14.3495 13.8878 14.0772 13.736 13.7831C13.6441 13.8984 13.547 14.0099 13.4449 14.1172C12.5313 15.0765 11.2921 15.6154 10 15.6154C8.7079 15.6154 7.46877 15.0765 6.55513 14.1172C5.64149 13.1578 5.12821 11.8567 5.12821 10.5C5.12821 9.14329 5.64149 7.84221 6.55513 6.88288C7.46877 5.92356 8.7079 5.38461 10 5.38461C11.2921 5.38461 12.5313 5.92356 13.4449 6.88288C14.3586 7.84221 14.8718 9.14329 14.8718 10.5V12.1154C14.8718 12.6152 15.0609 13.0946 15.3975 13.448C15.7342 13.8014 16.1907 14 16.6667 14C17.1427 14 17.5993 13.8014 17.9358 13.448C18.2724 13.0946 18.4615 12.6152 18.4615 12.1154V10.5C18.4615 8.74278 17.9652 7.02505 17.0355 5.56398C16.1057 4.1029 14.7842 2.96414 13.2381 2.29169C11.692 1.61924 9.99067 1.44329 8.34923 1.78611C6.70787 2.12892 5.20016 2.9751 4.01679 4.21763C2.83343 5.46017 2.02754 7.04326 1.70106 8.76669C1.37457 10.4902 1.54213 12.2766 2.18256 13.9C2.823 15.5234 3.90753 16.911 5.29903 17.8873C6.69052 18.8635 8.32646 19.3846 10 19.3846C11.4854 19.3861 12.9451 18.9761 14.2297 18.1946C14.5973 17.971 15.068 18.1026 15.281 18.4886C15.4939 18.8746 15.3686 19.3688 15.001 19.5925C13.4809 20.5171 11.7553 21.0018 9.99928 21C9.99949 21 9.99908 21 9.99928 21C8.02174 20.9999 6.08859 20.384 4.4443 19.2304C2.79982 18.0767 1.51808 16.4368 0.761212 14.5182C0.00432956 12.5996 -0.193701 10.4884 0.192155 8.45158C0.578001 6.41476 1.53041 4.54383 2.92893 3.07538C4.32746 1.60693 6.10929 0.606901 8.04913 0.201763ZM13.3333 10.5C13.3333 9.5718 12.9822 8.68151 12.357 8.02513C11.7319 7.36875 10.8841 7 10 7C9.116 7 8.2681 7.36875 7.64299 8.02513C7.01786 8.68151 6.66667 9.5718 6.66667 10.5C6.66667 11.4283 7.01786 12.3185 7.64299 12.9749C8.2681 13.6313 9.116 14 10 14C10.8841 14 11.7319 13.6313 12.357 12.9749C12.9822 12.3185 13.3333 11.4283 13.3333 10.5Z" fill="black"/>
</svg>
