<svg width="26" height="28" viewBox="0 0 26 28" fill="none" xmlns="http://www.w3.org/2000/svg">
<path fill-rule="evenodd" clip-rule="evenodd" d="M13 11.8125C11.1016 11.8125 9.56254 13.3515 9.56254 15.25C9.56254 16.8235 10.6197 18.15 12.0625 18.5581V22.75C12.0625 23.2678 12.4823 23.6875 13 23.6875C13.5178 23.6875 13.9375 23.2678 13.9375 22.75V18.5581C15.3804 18.15 16.4375 16.8235 16.4375 15.25C16.4375 13.3515 14.8985 11.8125 13 11.8125ZM11.4375 15.25C11.4375 14.3871 12.1371 13.6875 13 13.6875C13.863 13.6875 14.5625 14.3871 14.5625 15.25C14.5625 16.1129 13.863 16.8125 13 16.8125C12.1371 16.8125 11.4375 16.1129 11.4375 15.25Z" fill="#1E1E1E"/>
<path fill-rule="evenodd" clip-rule="evenodd" d="M13 0.5625C9.03049 0.5625 5.81254 3.78045 5.81254 7.75V8.40351L5.77898 8.41428C3.59083 9.12525 1.8753 10.8408 1.16432 13.0289C0.81198 14.1133 0.812185 15.4149 0.81252 17.5477V17.9523C0.812185 20.0851 0.81198 21.3867 1.16432 22.4711C1.87529 24.6592 3.59083 26.3747 5.77898 27.0857C6.86338 27.4381 8.16488 27.4379 10.2977 27.4375H15.7024C17.8352 27.4379 19.1367 27.4381 20.2211 27.0857C22.4092 26.3747 24.1248 24.6592 24.8358 22.4711C25.1881 21.3867 25.1879 20.0852 25.1876 17.9523V17.5477C25.1879 15.4148 25.1881 14.1133 24.8358 13.0289C24.1248 10.8408 22.4092 9.12525 20.2211 8.41428L20.1875 8.40351V7.75C20.1875 3.78045 16.9696 0.5625 13 0.5625ZM10.3951 8.0625C9.29607 8.06246 8.41892 8.06242 7.68754 8.10383V7.75C7.68754 4.81599 10.066 2.4375 13 2.4375C15.9341 2.4375 18.3125 4.81599 18.3125 7.75V8.10383C17.5812 8.06242 16.704 8.06246 15.605 8.0625H10.3951ZM6.90579 10.0666C7.65279 9.94077 8.66022 9.9375 10.5 9.9375H15.5C17.3399 9.9375 18.3473 9.94077 19.0943 10.0666C19.3009 10.1014 19.479 10.1446 19.6417 10.1975C21.259 10.723 22.527 11.991 23.0525 13.6083C23.301 14.373 23.3125 15.3504 23.3125 17.75C23.3125 20.1496 23.301 21.127 23.0525 21.8917C22.527 23.509 21.259 24.777 19.6417 25.3025C18.8771 25.5509 17.8996 25.5625 15.5 25.5625H10.5C8.10047 25.5625 7.12303 25.5509 6.35839 25.3025C4.74106 24.777 3.47306 23.509 2.94755 21.8917C2.69911 21.127 2.68754 20.1496 2.68754 17.75C2.68754 15.3504 2.69911 14.373 2.94755 13.6083C3.47305 11.991 4.74106 10.723 6.35839 10.1975C6.5211 10.1446 6.69923 10.1014 6.90579 10.0666Z" fill="#1E1E1E"/>
</svg>
