<svg width="26" height="24" viewBox="0 0 26 24" fill="none" xmlns="http://www.w3.org/2000/svg">
<path fill-rule="evenodd" clip-rule="evenodd" d="M15.7111 0C15.8669 1.40661 15.3012 2.81783 14.4633 3.83274C13.6252 4.84617 12.2503 5.63578 10.9041 5.53142C10.7197 4.15345 11.4003 2.71658 12.1762 1.8196C13.0429 0.804687 14.504 0.0484537 15.7111 0ZM20.0657 8.19205C19.8472 8.32555 17.4571 9.78562 17.4837 12.751C17.5166 16.3346 20.5863 17.5588 20.7024 17.6051L20.7054 17.6063C20.7045 17.6093 20.703 17.6142 20.7009 17.6209C20.644 17.8067 20.1599 19.388 19.0447 21.0201C18.0434 22.4812 17.0058 23.9378 15.3707 23.9695C14.5853 23.9836 14.0602 23.7562 13.5144 23.5199C12.9428 23.2724 12.3487 23.0151 11.4094 23.0151C10.4257 23.0151 9.8041 23.2799 9.20498 23.5351C8.68567 23.7562 8.18329 23.9702 7.47678 23.9983C5.89769 24.0588 4.69674 22.4177 3.68787 20.9611C1.62779 17.9814 0.0517262 12.5408 2.16777 8.86987C3.21747 7.04575 5.09453 5.89168 7.13344 5.86143C8.01181 5.84427 8.86294 6.18175 9.60793 6.47714C10.1766 6.70261 10.6834 6.90356 11.0932 6.90356C11.461 6.90356 11.9543 6.70916 12.5295 6.48244C13.4353 6.12543 14.5444 5.68832 15.6868 5.80395C16.4703 5.83722 18.6665 6.12007 20.0777 8.18468C20.075 8.18636 20.071 8.18882 20.0657 8.19205Z" fill="#D0D3D4"/>
</svg>
