<svg width="26" height="24" viewBox="0 0 26 24" fill="none" xmlns="http://www.w3.org/2000/svg">
<path d="M12.3701 7.70703C10.1201 7.70703 8.32715 9.53516 8.32715 11.75C8.32715 14 10.1201 15.793 12.3701 15.793C14.5849 15.793 16.4131 14 16.4131 11.75C16.4131 9.53516 14.5849 7.70703 12.3701 7.70703ZM12.3701 14.3867C10.9287 14.3867 9.7334 13.2266 9.7334 11.75C9.7334 10.3086 10.8935 9.14844 12.3701 9.14844C13.8115 9.14844 14.9717 10.3086 14.9717 11.75C14.9717 13.2266 13.8115 14.3867 12.3701 14.3867ZM17.5029 7.56641C17.5029 7.03906 17.081 6.61719 16.5537 6.61719C16.0263 6.61719 15.6045 7.03906 15.6045 7.56641C15.6045 8.09375 16.0263 8.51562 16.5537 8.51562C17.081 8.51562 17.5029 8.09375 17.5029 7.56641ZM20.1748 8.51562C20.1045 7.25 19.8232 6.125 18.9092 5.21094C17.9951 4.29688 16.8701 4.01562 15.6045 3.94531C14.3037 3.875 10.4014 3.875 9.10059 3.94531C7.83496 4.01562 6.74512 4.29688 5.7959 5.21094C4.88184 6.125 4.60059 7.25 4.53028 8.51562C4.45996 9.81641 4.45996 13.7188 4.53028 15.0195C4.60059 16.2852 4.88184 17.375 5.7959 18.3242C6.74512 19.2383 7.83496 19.5195 9.10059 19.5898C10.4014 19.6602 14.3037 19.6602 15.6045 19.5898C16.8701 19.5195 17.9951 19.2383 18.9092 18.3242C19.8232 17.375 20.1045 16.2852 20.1748 15.0195C20.2451 13.7188 20.2451 9.81641 20.1748 8.51562ZM18.4873 16.3906C18.2412 17.0938 17.6787 17.6211 17.0107 17.9023C15.956 18.3242 13.4951 18.2188 12.3701 18.2188C11.2099 18.2188 8.74903 18.3242 7.7295 17.9023C7.02637 17.6211 6.49903 17.0938 6.21778 16.3906C5.7959 15.3711 5.90137 12.9102 5.90137 11.75C5.90137 10.625 5.7959 8.16406 6.21778 7.10938C6.49903 6.44141 7.02637 5.91406 7.7295 5.63281C8.74903 5.21094 11.2099 5.31641 12.3701 5.31641C13.4951 5.31641 15.956 5.21094 17.0107 5.63281C17.6787 5.87891 18.206 6.44141 18.4873 7.10938C18.9092 8.16406 18.8037 10.625 18.8037 11.75C18.8037 12.9102 18.9092 15.3711 18.4873 16.3906Z" fill="#D0D3D4"/>
</svg>
