<svg width="41" height="40" viewBox="0 0 41 40" fill="none" xmlns="http://www.w3.org/2000/svg">
<path d="M16.0107 26.5V15.9883H12.7412V26.5H16.0107ZM14.3584 14.582C15.4131 14.582 16.2568 13.7031 16.2568 12.6484C16.2568 11.6289 15.4131 10.7852 14.3584 10.7852C13.3389 10.7852 12.4951 11.6289 12.4951 12.6484C12.4951 13.7031 13.3389 14.582 14.3584 14.582ZM28.2099 26.5H28.2451V20.7344C28.2451 17.9219 27.6123 15.7422 24.3076 15.7422C22.7256 15.7422 21.6709 16.6211 21.2139 17.4297H21.1787V15.9883H18.0498V26.5H21.3193V21.2969C21.3193 19.9258 21.5654 18.625 23.2529 18.625C24.9404 18.625 24.9756 20.1719 24.9756 21.4023V26.5H28.2099Z" fill="#D0D3D4"/>
</svg>
