<svg width="25" height="24" viewBox="0 0 25 24" fill="none" xmlns="http://www.w3.org/2000/svg">
<path d="M19.6318 8.09375C20.3349 7.56641 20.9678 6.93359 21.4599 6.19531C20.8271 6.47656 20.0889 6.6875 19.3506 6.75781C20.124 6.30078 20.6865 5.59766 20.9678 4.71875C20.2646 5.14062 19.456 5.45703 18.6474 5.63281C17.9443 4.89453 16.9951 4.47266 15.9404 4.47266C13.9013 4.47266 12.249 6.125 12.249 8.16406C12.249 8.44531 12.2842 8.72656 12.3545 9.00781C9.2959 8.83203 6.55371 7.35547 4.72559 5.14062C4.40918 5.66797 4.2334 6.30078 4.2334 7.00391C4.2334 8.26953 4.86621 9.39453 5.88574 10.0625C5.28809 10.0273 4.69043 9.88672 4.19824 9.60547V9.64062C4.19824 11.4336 5.46387 12.9102 7.15137 13.2617C6.87012 13.332 6.51856 13.4023 6.20215 13.4023C5.95606 13.4023 5.74512 13.3672 5.49903 13.332C5.95606 14.8086 7.32715 15.8633 8.94434 15.8984C7.67871 16.8828 6.09668 17.4805 4.37403 17.4805C4.05762 17.4805 3.77637 17.4453 3.49512 17.4102C5.11231 18.4648 7.0459 19.0625 9.15528 19.0625C15.9404 19.0625 19.6318 13.4727 19.6318 8.58594C19.6318 8.41016 19.6318 8.26953 19.6318 8.09375Z" fill="#D0D3D4"/>
</svg>
